<svg width="25" height="24" viewBox="0 0 25 24" fill="none" xmlns="http://www.w3.org/2000/svg">
<path d="M12.5 6V9L16.5 5L12.5 1V4C10.3783 4 8.34344 4.84285 6.84315 6.34315C5.34285 7.84344 4.5 9.87827 4.5 12C4.5 13.57 4.96 15.03 5.74 16.26L7.2 14.8C6.75 13.97 6.5 13 6.5 12C6.5 10.4087 7.13214 8.88258 8.25736 7.75736C9.38258 6.63214 10.9087 6 12.5 6V6ZM19.26 7.74L17.8 9.2C18.24 10.04 18.5 11 18.5 12C18.5 13.5913 17.8679 15.1174 16.7426 16.2426C15.6174 17.3679 14.0913 18 12.5 18V15L8.5 19L12.5 23V20C14.6217 20 16.6566 19.1571 18.1569 17.6569C19.6571 16.1566 20.5 14.1217 20.5 12C20.5 10.43 20.04 8.97 19.26 7.74Z" fill="white"/>
</svg>
