<svg width="24" height="24" viewBox="0 0 24 24" fill="none" xmlns="http://www.w3.org/2000/svg">
<path fill-rule="evenodd" clip-rule="evenodd" d="M4.93409 16.4656C6.03491 17.2037 7.32908 17.5977 8.65306 17.5977V19.8367C9.24486 19.8367 9.81233 19.6008 10.2308 19.1809C10.6493 18.761 10.8844 18.1915 10.8844 17.5977C10.8844 17.0038 10.6493 16.4343 10.2308 16.0144C9.81233 15.5945 9.24486 15.3586 8.65306 15.3586V15.3635C7.76947 15.3635 6.90575 15.1006 6.17103 14.608C5.43636 14.1154 4.86378 13.4152 4.52568 12.5961C4.18752 11.7769 4.09907 10.8755 4.27141 10.0059C4.44383 9.13626 4.86927 8.33747 5.49402 7.71052C6.11886 7.08356 6.91489 6.65658 7.78152 6.48361C8.64805 6.31059 9.54636 6.39938 10.3627 6.7387C11.179 7.07803 11.8768 7.65262 12.3676 8.38983C12.8585 9.12708 13.1205 9.9938 13.1205 10.8805H8.65306V8.64141C8.06122 8.64141 7.49375 8.87733 7.0753 9.29723C6.6568 9.71714 6.42177 10.2866 6.42177 10.8805C6.42177 11.4743 6.6568 12.0438 7.0753 12.4637C7.49375 12.8836 8.06122 13.1196 8.65306 13.1196V10.8805C8.65306 12.209 9.04559 13.5077 9.78116 14.6123C10.5167 15.717 11.5621 16.578 12.7853 17.0864C14.0084 17.5948 15.3544 17.7278 16.6528 17.4686C17.9513 17.2094 19.144 16.5697 20.0802 15.6302C21.0163 14.6908 21.6539 13.494 21.9122 12.1909C22.1705 10.8879 22.0379 9.53733 21.5313 8.30991C21.0246 7.08248 20.1667 6.03342 19.0659 5.29533C17.9651 4.55723 16.6709 4.16327 15.3469 4.16327V10.8805C15.3469 9.55195 14.9544 8.25323 14.2188 7.14858C13.4833 6.04397 12.4378 5.18302 11.2146 4.6746C9.99158 4.16618 8.64561 4.03315 7.34713 4.29234C6.04864 4.55153 4.85595 5.19127 3.91978 6.13069C2.98363 7.07011 2.34606 8.26702 2.08778 9.57C1.82951 10.873 1.96208 12.2236 2.4687 13.451C2.97532 14.6784 3.8333 15.7275 4.93409 16.4656ZM19.8095 9.76092C19.8095 9.14264 19.3101 8.64141 18.6939 8.64141C18.0777 8.64141 17.5782 9.14264 17.5782 9.76092C17.5782 10.3792 18.0777 10.8805 18.6939 10.8805C19.3101 10.8805 19.8095 10.3792 19.8095 9.76092Z" fill="white"/>
</svg>
